<svg width="100" height="100" viewBox="0 0 100 100" fill="none" xmlns="http://www.w3.org/2000/svg">
<rect opacity="0.0229128" x="0.5" y="0.5" width="99" height="99" stroke="#2B2B2B"/>
<path fill-rule="evenodd" clip-rule="evenodd" d="M37.6246 17.3916C34.3056 30.5995 29.2795 69.6198 81.1519 68.6681C82.5564 68.6423 83.4078 70.1827 82.5932 71.3213C79.0473 76.2732 69.4014 85.8097 48.4546 84.0545C48.4546 84.0545 18.3588 80.3572 17.0602 46.667C17.0602 46.667 15.8501 27.0354 34.9084 15.4043C36.2978 14.5579 38.02 15.8211 37.6246 17.3916" fill="#ADC1E3"/>
<path fill-rule="evenodd" clip-rule="evenodd" d="M35.0247 50.665C35.4591 54.2828 32.8596 57.5634 29.223 57.9952C25.5842 58.427 22.2824 55.8425 21.8503 52.2269C21.416 48.6091 24.0133 45.3264 27.6521 44.8968C31.2909 44.4649 34.5904 47.0472 35.0247 50.665" fill="#8AA1C4"/>
<path fill-rule="evenodd" clip-rule="evenodd" d="M43.9367 69.9661C44.2651 72.701 42.301 75.1801 39.5502 75.5067C36.7995 75.8332 34.306 73.8804 33.9775 71.1456C33.6491 68.4107 35.6132 65.9315 38.364 65.605C41.1147 65.2784 43.6082 67.2313 43.9367 69.9661" fill="#8AA1C4"/>
<path fill-rule="evenodd" clip-rule="evenodd" d="M53.8399 69.6257C54.1122 71.9073 52.4743 73.9761 50.1817 74.2468C47.8869 74.5196 45.8061 72.8912 45.5338 70.6097C45.2594 68.3303 46.8973 66.2593 49.192 65.9886C51.4847 65.7157 53.5655 67.3442 53.8399 69.6257" fill="#8AA1C4"/>
<path fill-rule="evenodd" clip-rule="evenodd" d="M70.2962 73.9082C70.5015 75.6268 69.2676 77.1865 67.539 77.3928C65.8103 77.5969 64.2416 76.368 64.0342 74.6493C63.8289 72.9307 65.0627 71.371 66.7913 71.1669C68.5222 70.9606 70.0909 72.1895 70.2962 73.9082" fill="#8AA1C4"/>
<path fill-rule="evenodd" clip-rule="evenodd" d="M33.6199 37.0034C33.8252 38.722 32.5914 40.2817 30.8627 40.488C29.1341 40.6921 27.5653 39.4632 27.3579 37.7446C27.1526 36.0259 28.3864 34.4662 30.1151 34.2621C31.8459 34.0559 33.4146 35.2847 33.6199 37.0034" fill="#8AA1C4"/>
<path fill-rule="evenodd" clip-rule="evenodd" d="M59.3986 31.8381C61.0732 31.8381 61.7819 37.1273 62.6203 37.9115C63.4587 38.6956 68.8478 37.4066 69.4269 39.0823C70.006 40.7559 65.1398 42.988 64.6104 44.0042C64.081 45.0203 67.0738 49.7961 65.5958 50.8015C64.1178 51.8069 60.5503 47.7702 59.3986 47.7702C58.2468 47.7702 54.6167 51.9143 53.2014 50.8015C51.786 49.6887 54.7139 45.0203 54.1845 44.0042C53.6573 42.988 48.7825 40.7365 49.3702 39.0823C49.958 37.426 55.3384 38.6956 56.1768 37.9115C57.0152 37.1273 57.7239 31.8381 59.3986 31.8381" fill="#F9C900"/>
<path fill-rule="evenodd" clip-rule="evenodd" d="M69.4747 16.6711C70.581 16.6711 71.0477 20.1622 71.6009 20.6799C72.1541 21.1977 75.7086 20.3448 76.0911 21.4512C76.4735 22.5554 73.2647 24.0292 72.9147 24.6995C72.5646 25.3698 74.5396 28.5214 73.5651 29.1852C72.5884 29.849 70.2353 27.1851 69.4747 27.1851C68.7141 27.1851 66.3199 29.9199 65.3842 29.1852C64.4508 28.4505 66.3847 25.3698 66.0347 24.6995C65.6846 24.0292 62.4693 22.5425 62.8583 21.4512C63.245 20.3598 66.7953 21.1977 67.3484 20.6799C67.9016 20.1622 68.3705 16.6711 69.4747 16.6711" fill="#F9C900"/>
</svg>
