<svg width="100" height="100" viewBox="0 0 100 100" fill="none" xmlns="http://www.w3.org/2000/svg">
<rect opacity="0.0229128" x="0.5" y="0.5" width="99" height="99" stroke="#2B2B2B"/>
<path fill-rule="evenodd" clip-rule="evenodd" d="M50.5776 35.0601C59.2093 35.0667 66.2006 42.0673 66.1939 50.6967C66.1872 59.326 59.1848 66.3154 50.5532 66.3088C41.9215 66.3021 34.9302 59.3016 34.9369 50.6722C34.9436 42.0428 41.946 35.0534 50.5776 35.0601" fill="#F9C900"/>
<path fill-rule="evenodd" clip-rule="evenodd" d="M46.851 71.5247C46.851 71.7117 46.8265 71.903 46.7753 72.0922L44.1822 81.7385C43.8684 82.9067 42.6665 83.601 41.4979 83.2872C40.3294 82.9735 39.6349 81.7719 39.951 80.6014L42.544 70.9551C42.8579 69.7868 44.0598 69.0948 45.2284 69.4086C46.2077 69.6711 46.851 70.5568 46.851 71.5247" fill="#F9C900"/>
<path fill-rule="evenodd" clip-rule="evenodd" d="M35.9944 67.5643C35.9944 68.154 35.7563 68.7437 35.2888 69.1754L27.9415 75.9423C27.0511 76.7634 25.6645 76.7055 24.8454 75.8154C24.024 74.9276 24.0797 73.5413 24.97 72.7201L32.3174 65.951C33.2077 65.1322 34.5944 65.19 35.4135 66.0779C35.803 66.5007 35.9944 67.0325 35.9944 67.5643" fill="#F9C900"/>
<path fill-rule="evenodd" clip-rule="evenodd" d="M30.0564 56.9286C30.0564 57.9032 29.3998 58.7911 28.4137 59.047L18.7404 61.5459C17.5674 61.8485 16.3721 61.1454 16.0694 59.9727C15.7667 58.8022 16.47 57.6073 17.643 57.3046L27.3164 54.8035C28.4872 54.5009 29.6824 55.2063 29.9851 56.3767C30.0341 56.5614 30.0564 56.7461 30.0564 56.9286" fill="#F9C900"/>
<path fill-rule="evenodd" clip-rule="evenodd" d="M30.364 44.6558C30.364 44.8361 30.3417 45.0185 30.295 45.201C29.9923 46.3737 28.797 47.0791 27.6262 46.7765L17.9507 44.2864C16.7777 43.986 16.0721 42.7911 16.3748 41.6206C16.6753 40.448 17.8705 39.7426 19.0435 40.0452L28.7191 42.5352C29.7074 42.7889 30.364 43.679 30.364 44.6558" fill="#F9C900"/>
<path fill-rule="evenodd" clip-rule="evenodd" d="M35.9404 33.9891C35.9404 34.5365 35.7356 35.0861 35.3238 35.5112C34.4825 36.379 33.0936 36.4035 32.2255 35.5601L25.0473 28.613C24.1792 27.7719 24.1547 26.3833 24.9983 25.5155C25.8396 24.6454 27.2263 24.6232 28.0966 25.4643L35.2726 32.4137C35.7178 32.8431 35.9404 33.415 35.9404 33.9891" fill="#F9C900"/>
<path fill-rule="evenodd" clip-rule="evenodd" d="M46.1199 27.8985C46.1199 28.8776 45.4566 29.7699 44.4639 30.0191C43.2909 30.3151 42.1001 29.603 41.804 28.4303L39.3623 18.744C39.0663 17.5691 39.7785 16.3808 40.9515 16.0848C42.1245 15.7889 43.3154 16.501 43.6114 17.6736L46.0531 27.36C46.0976 27.5402 46.1199 27.7205 46.1199 27.8985" fill="#F9C900"/>
<path fill-rule="evenodd" clip-rule="evenodd" d="M60.789 18.9263C60.789 19.111 60.7645 19.298 60.7155 19.4826L58.1759 29.1445C57.8687 30.3128 56.6713 31.0137 55.5005 30.7044C54.3297 30.3973 53.6308 29.1979 53.938 28.0297L56.4776 18.37C56.7848 17.1996 57.9845 16.5009 59.1553 16.8079C60.1391 17.0661 60.789 17.9539 60.789 18.9263" fill="#F9C900"/>
<path fill-rule="evenodd" clip-rule="evenodd" d="M76.6779 27.267C76.6779 27.8789 76.4219 28.4864 75.9256 28.9181L68.3868 35.4758C67.4742 36.268 66.0897 36.1723 65.2951 35.26C64.5005 34.3476 64.5962 32.9635 65.511 32.1691L73.0476 25.6137C73.9624 24.8193 75.3446 24.9149 76.1392 25.8273C76.502 26.2434 76.6779 26.7574 76.6779 27.267" fill="#F9C900"/>
<path fill-rule="evenodd" clip-rule="evenodd" d="M84.4471 41.8865C84.4471 42.8478 83.8083 43.7289 82.8357 43.996L73.2001 46.6395C72.0338 46.9599 70.8274 46.2724 70.5069 45.1063C70.1864 43.9381 70.8742 42.7343 72.0405 42.4138L81.676 39.7703C82.8423 39.4521 84.0487 40.1374 84.3692 41.3035C84.4227 41.4993 84.4471 41.6951 84.4471 41.8865" fill="#F9C900"/>
<path fill-rule="evenodd" clip-rule="evenodd" d="M84.2815 58.9652C84.2815 59.1454 84.2592 59.3279 84.2125 59.5103C83.9098 60.683 82.7145 61.3884 81.5437 61.0858L71.8681 58.5958C70.6951 58.2954 69.9896 57.1004 70.2923 55.93C70.5928 54.7573 71.788 54.0519 72.961 54.3545L82.6366 56.8445C83.6249 57.0982 84.2815 57.9883 84.2815 58.9652" fill="#F9C900"/>
<path fill-rule="evenodd" clip-rule="evenodd" d="M76.099 74.0064C76.099 74.5738 75.8786 75.1435 75.4401 75.5707C74.5743 76.4163 73.1876 76.4007 72.3418 75.5351L65.3572 68.3944C64.5114 67.5288 64.5248 66.1425 65.3906 65.2969C66.2565 64.4513 67.6431 64.4669 68.4889 65.3303L75.4735 72.4732C75.892 72.9005 76.099 73.4523 76.099 74.0064" fill="#F9C900"/>
<path fill-rule="evenodd" clip-rule="evenodd" d="M61.0141 82.0848C61.0141 83.0506 60.3686 83.934 59.3914 84.1965C58.2229 84.5125 57.021 83.8205 56.7071 82.6522L54.1074 73.0082C53.7913 71.8399 54.4835 70.6361 55.6521 70.3223C56.8206 70.0063 58.0226 70.6984 58.3386 71.8666L60.9384 81.5129C60.9896 81.7043 61.0141 81.8957 61.0141 82.0848" fill="#F9C900"/>
</svg>
