<svg width="100" height="100" viewBox="0 0 100 100" fill="none" xmlns="http://www.w3.org/2000/svg">
<rect opacity="0.0229128" x="0.5" y="0.5" width="99" height="99" stroke="#2B2B2B"/>
<path fill-rule="evenodd" clip-rule="evenodd" d="M88.6201 42.0379C94.5571 42.0379 99.387 46.906 99.387 52.8937C99.387 58.8773 94.5571 63.7454 88.6201 63.7454H41.8071C34.3571 63.7454 28.2944 57.6326 28.2944 50.1193C28.2944 42.6059 34.3571 36.4932 41.8071 36.4932C43.1945 36.4932 44.5736 36.7085 45.9011 37.1329L46.769 37.4098L47.0741 36.5465C49.9353 28.4364 57.5812 22.988 66.099 22.988C76.5134 22.988 85.1569 30.8541 86.2062 41.2874L86.3031 42.2532L87.2596 42.1343C87.7873 42.0687 88.2202 42.0379 88.6201 42.0379" fill="#BAC6D1"/>
<path fill-rule="evenodd" clip-rule="evenodd" d="M11.8942 53.3305C5.3368 53.3305 -0.000244141 58.6907 -0.000244141 65.2813C-0.000244141 71.8678 5.3368 77.23 11.8942 77.23H63.6093C71.8427 77.23 78.5382 70.5 78.5382 62.228C78.5382 53.9559 71.8427 47.2259 63.6093 47.2259C62.0777 47.2259 60.5543 47.4638 59.0865 47.9293L58.13 48.2348L57.792 47.2834C54.6318 38.3551 46.184 32.3572 36.7736 32.3572C25.2688 32.3572 15.7202 41.0188 14.5617 52.5041L14.4545 53.5684L13.3991 53.4372C12.8136 53.3633 12.3354 53.3305 11.8942 53.3305" fill="#D6E3F2"/>
</svg>
