<svg width="100" height="66" viewBox="0 0 100 66" fill="none" xmlns="http://www.w3.org/2000/svg">
<path fill-rule="evenodd" clip-rule="evenodd" d="M30.2735 16.5171C37.8312 16.5228 43.9523 22.5952 43.9465 30.0809C43.9408 37.5666 37.81 43.6295 30.2523 43.6238C22.6946 43.618 16.5735 37.5457 16.5792 30.0599C16.585 22.5742 22.7158 16.5114 30.2735 16.5171Z" fill="#F9C900"/>
<path fill-rule="evenodd" clip-rule="evenodd" d="M17.5053 44.7118C17.5053 45.2242 17.2976 45.7346 16.8861 46.108L10.4534 51.9803C9.67456 52.6908 8.4611 52.6413 7.74379 51.8699C7.02456 51.0984 7.07456 49.8965 7.85341 49.1842L14.2861 43.3137C15.0669 42.6032 16.2803 42.6508 16.9976 43.4242C17.338 43.788 17.5053 44.2508 17.5053 44.7118Z" fill="#F9C900"/>
<path fill-rule="evenodd" clip-rule="evenodd" d="M12.576 24.8407C12.576 24.9969 12.5567 25.155 12.5144 25.315C12.251 26.3303 11.2048 26.9417 10.1798 26.6807L1.70673 24.5207C0.681729 24.2598 0.0644211 23.2217 0.327883 22.2064C0.591344 21.1912 1.6375 20.5798 2.66442 20.8407L11.1356 23.0007C12.001 23.2217 12.576 23.9931 12.576 24.8407Z" fill="#F9C900"/>
<path fill-rule="evenodd" clip-rule="evenodd" d="M17.4581 15.5882C17.4581 16.0644 17.2792 16.5406 16.9177 16.9082C16.1812 17.6625 14.9658 17.6816 14.2042 16.952L7.92155 10.9235C7.16001 10.194 7.14078 8.99205 7.87732 8.23776C8.61386 7.48348 9.82924 7.46443 10.5908 8.19395L16.8735 14.2206C17.2639 14.594 17.4581 15.0911 17.4581 15.5882Z" fill="#F9C900"/>
<path fill-rule="evenodd" clip-rule="evenodd" d="M26.3706 10.3052C26.3706 11.1547 25.7898 11.9281 24.9206 12.1452C23.8937 12.4023 22.8494 11.7852 22.5917 10.7662L20.4533 2.36425C20.1956 1.3452 20.8187 0.314725 21.8456 0.0575819C22.8725 -0.197656 23.9167 0.419487 24.1744 1.43663L26.3129 9.83853C26.3514 9.99472 26.3706 10.1509 26.3706 10.3052Z" fill="#F9C900"/>
<path fill-rule="evenodd" clip-rule="evenodd" d="M39.2137 2.52221C39.2137 2.68221 39.1925 2.84411 39.1502 3.00602L36.9271 11.3851C36.6579 12.4003 35.6079 13.006 34.5829 12.7394C33.5598 12.4727 32.9464 11.4327 33.2156 10.4194L35.4387 2.0384C35.7079 1.02507 36.7579 0.417446 37.7829 0.684113C38.6444 0.908875 39.2137 1.6784 39.2137 2.52221Z" fill="#F9C900"/>
<path fill-rule="evenodd" clip-rule="evenodd" d="M53.1249 9.75725C53.1249 10.2868 52.9018 10.8144 52.4653 11.1896L45.8652 16.8772C45.0672 17.5649 43.8537 17.4811 43.1595 16.6906C42.4633 15.8982 42.5479 14.6982 43.3479 14.0087L49.9479 8.32296C50.746 7.63344 51.9576 7.71725 52.6537 8.50963C52.971 8.86963 53.1249 9.31534 53.1249 9.75725Z" fill="#F9C900"/>
<path fill-rule="evenodd" clip-rule="evenodd" d="M59.9268 22.4385C59.9268 23.2728 59.3671 24.0366 58.5152 24.269L50.0806 26.5604C49.0575 26.8385 48.0018 26.2442 47.7229 25.2309C47.4421 24.2175 48.0421 23.1737 49.0652 22.8956L57.4998 20.6042C58.5229 20.3261 59.5768 20.9204 59.8575 21.9337C59.9037 22.1014 59.9268 22.2709 59.9268 22.4385Z" fill="#F9C900"/>
<path fill-rule="evenodd" clip-rule="evenodd" d="M12.3068 35.486C12.3068 36.3317 11.7318 37.1012 10.8684 37.3222L2.39913 39.4917C1.37413 39.7546 0.326052 39.1431 0.0606675 38.1279C-0.202794 37.1127 0.412591 36.0746 1.43951 35.8117L9.90874 33.6441C10.9337 33.3812 11.9799 33.9908 12.2453 35.0079C12.2876 35.1679 12.3068 35.3279 12.3068 35.486Z" fill="#F9C900"/>
<path fill-rule="evenodd" clip-rule="evenodd" d="M89.301 32.5734C94.8394 32.5734 99.3452 37.0953 99.3452 42.6572C99.3452 48.2153 94.8394 52.7372 89.301 52.7372H45.6298C38.6798 52.7372 33.024 47.0591 33.024 40.0801C33.024 33.101 38.6798 27.4229 45.6298 27.4229C46.924 27.4229 48.2106 27.6229 49.449 28.0172L50.2587 28.2744L50.5433 27.4725C53.2125 19.9391 60.3452 14.8782 68.2914 14.8782C78.0067 14.8782 86.0702 22.1848 87.049 31.8763L87.1394 32.7734L88.0317 32.6629C88.524 32.602 88.9279 32.5734 89.301 32.5734Z" fill="#C8D0D6"/>
<path fill-rule="evenodd" clip-rule="evenodd" d="M17.7248 43.0628C11.6075 43.0628 6.62866 48.0419 6.62866 54.1638C6.62866 60.2819 11.6075 65.2628 17.7248 65.2628H65.969C73.6498 65.2628 79.896 59.0114 79.896 51.3276C79.896 43.6438 73.6498 37.3924 65.969 37.3924C64.5402 37.3924 63.119 37.6133 61.7498 38.0457L60.8575 38.3295L60.5421 37.4457C57.594 29.1524 49.7133 23.5809 40.9344 23.5809C30.2017 23.5809 21.294 31.6266 20.2133 42.2952L20.1133 43.2838L19.1287 43.1619C18.5825 43.0933 18.1364 43.0628 17.7248 43.0628Z" fill="#D6E3F2"/>
</svg>
