<svg width="100" height="100" viewBox="0 0 100 100" fill="none" xmlns="http://www.w3.org/2000/svg">
<rect opacity="0.0229128" x="0.5" y="0.5" width="99" height="99" stroke="#2B2B2B"/>
<path fill-rule="evenodd" clip-rule="evenodd" d="M62.9447 60.2432C62.9447 60.2432 60.2 67.7157 60.8936 70.5759C61.4681 72.9374 63.8638 74.3889 66.2383 73.8113C68.6191 73.2316 70.0745 70.8402 69.5021 68.4787C68.8085 65.6205 62.9447 60.2432 62.9447 60.2432" fill="#38A1E8"/>
<path fill-rule="evenodd" clip-rule="evenodd" d="M79.9981 59.9265C79.9981 59.9265 77.2535 67.399 77.9471 70.2571C78.5215 72.6208 80.9173 74.0722 83.2917 73.4946C85.6726 72.9149 87.1279 70.5236 86.5556 68.162C85.862 65.3039 79.9981 59.9265 79.9981 59.9265" fill="#38A1E8"/>
<path fill-rule="evenodd" clip-rule="evenodd" d="M14.3849 61.2007C14.3849 61.2007 11.6402 68.6732 12.3338 71.5313C12.9083 73.895 15.304 75.3464 17.6785 74.7688C20.0593 74.1891 21.5146 71.7977 20.9423 69.4362C20.2487 66.5781 14.3849 61.2007 14.3849 61.2007" fill="#38A1E8"/>
<path fill-rule="evenodd" clip-rule="evenodd" d="M26.2074 77.4524C26.2074 77.4524 23.45 84.8759 24.1393 87.7105C24.7074 90.055 27.0989 91.4916 29.4755 90.914C31.8563 90.3342 33.3159 87.9599 32.7457 85.6154C32.0585 82.7786 26.2074 77.4524 26.2074 77.4524" fill="#38A1E8"/>
<path fill-rule="evenodd" clip-rule="evenodd" d="M56.6876 76.4756C56.6876 76.4756 53.9302 83.8991 54.6195 86.7337C55.1876 89.0782 57.5791 90.5147 59.9557 89.9372C62.3366 89.3574 63.7961 86.9831 63.2259 84.6386C62.5387 81.8018 56.6876 76.4756 56.6876 76.4756" fill="#38A1E8"/>
<path fill-rule="evenodd" clip-rule="evenodd" d="M74.7088 75.6431C74.7088 75.6431 71.9513 83.0665 72.6407 85.9012C73.2088 88.2457 75.6002 89.6822 77.9768 89.1046C80.3577 88.5249 81.8173 86.1506 81.2471 83.8061C80.5598 80.9693 74.7088 75.6431 74.7088 75.6431" fill="#38A1E8"/>
<path fill-rule="evenodd" clip-rule="evenodd" d="M28.3457 65.8844H42.3734L41.633 63.8234C40.2947 60.0978 39.0798 56.7217 38.6968 55.6646C38.0585 53.8998 38.033 52.5272 38.6266 51.7003C39.1117 51.0225 39.8819 50.8818 40.0606 50.8818H44.3074C46.9691 50.8818 48.5947 53.5396 49.1755 55.8138C49.3564 56.5235 49.567 57.3398 49.7968 58.2328C50.7223 61.822 51.9904 66.739 52.8713 70.5733C53.4947 73.2865 52.8798 74.4225 52.5862 74.7849C52.3138 75.1216 51.9351 75.2836 51.4266 75.2836H36.8287L41.9393 89.879C42.1755 90.5504 42.1393 90.9213 42.0968 91.0385C41.9032 91.0662 41.2074 90.9063 40.5798 90.0048C37.6074 85.7314 30.1159 74.6804 26.8457 69.6483C26.0542 68.4292 25.8032 67.4253 26.1393 66.82C26.4457 66.2701 27.3521 65.8844 28.3457 65.8844" fill="#F9C900"/>
<path fill-rule="evenodd" clip-rule="evenodd" d="M88.073 33.89C94.2007 33.89 99.1858 38.9498 99.1858 45.1734C99.1858 51.3926 94.2007 56.4524 88.073 56.4524H39.756C32.0667 56.4524 25.8092 50.0989 25.8092 42.2896C25.8092 34.4804 32.0667 28.1269 39.756 28.1269C41.1879 28.1269 42.6113 28.3507 43.9815 28.7919L44.8773 29.0796L45.1922 28.1823C48.1454 19.7528 56.0369 14.0898 64.8284 14.0898C75.5773 14.0898 84.4986 22.2657 85.5815 33.11L85.6815 34.1138L86.6688 33.9902C87.2135 33.922 87.6603 33.89 88.073 33.89" fill="#D6E3F2"/>
<path fill-rule="evenodd" clip-rule="evenodd" d="M12.2764 31.6773C5.50827 31.6773 -0.000244141 37.2486 -0.000244141 44.0988C-0.000244141 50.9447 5.50827 56.5181 12.2764 56.5181H65.6529C74.1508 56.5181 81.0615 49.523 81.0615 40.9252C81.0615 32.3274 74.1508 25.3323 65.6529 25.3323C64.0721 25.3323 62.4998 25.5795 60.9849 26.0634L59.9976 26.3809L59.6487 25.392C56.387 16.1121 47.6678 9.87793 37.9551 9.87793C26.0806 9.87793 16.2253 18.8807 15.0295 30.8184L14.9189 31.9245L13.8295 31.7881C13.2253 31.7114 12.7317 31.6773 12.2764 31.6773" fill="#BAC6D1"/>
</svg>
